<?xml version="1.0" encoding="utf-8"?>
<!-- Generator: Adobe Illustrator 18.1.1, SVG Export Plug-In . SVG Version: 6.00 Build 0)  -->
<!DOCTYPE svg PUBLIC "-//W3C//DTD SVG 1.1//EN" "http://www.w3.org/Graphics/SVG/1.1/DTD/svg11.dtd">
<svg version="1.1" id="Layer_1" xmlns="http://www.w3.org/2000/svg" xmlns:xlink="http://www.w3.org/1999/xlink" x="0px" y="0px"
	 viewBox="0 0 39 60.6" enable-background="new 0 0 39 60.6" xml:space="preserve">
<path fill="#FFFFFF" d="M17.3,29.8l-1.1,3.9l-1.6,0.9l-0.8,3.8l-6.6,6.4L5,45.5l-3,4.3l-2,4.7L1.2,56l2.3-0.5L4,56.3h1.3l0.1,0.8
	l2.3,0.1L9.9,56l2-1.9l1.3-0.4v-1.3l1.5-3.5l1.3-3.9l1.8-1.4l1.9,0.4l0.8-0.3l0.3-0.9l-1.1-1.4l0.3-0.7l1.8-2.3l0.3-1.6l1-0.5
	l1.3-2.7l-0.3-0.7l0.2-1l-0.2-0.4l0.2-1.1l-1.4-0.6l-2.2,1.6l-0.1-0.2l0.2-1.1l-0.6-0.4l-0.5,0.2l-0.1-0.3l0.3-0.6l0.3-0.5l-0.3-0.5
	L17.3,29.8z M19.2,0l-1.6,1l2.2,2.4v0.9l6,9.1l-0.3,3.1l-0.9,3.2l-2.5,1.9l0.1,1.4l3.7,1.7l0.9,1.6l-2.1,4.1l0.5,1l1.5-0.1l0.6,0.8
	l1.8-1l2.8-4.7l1.6-3.8L33.1,22l0.8-1.9l1.7-0.1l0.2,1l1.4-0.7l-0.2-2l1.1-0.6l0.4-2.1l0.5-1.9l-1.5-1.4l-3.8,2.1l-2.6-0.9l-1.5-4.3
	l-1.8,0.2l0.2,2.1l-0.5,0.5l-1.3-1.9l0.4-1.7L25.9,5L23,2.5l-2.1,0.1L19.2,0z"/>
<polygon fill="#FFFFFF" points="3.3,57.7 3.6,58.7 2.4,60.3 2.8,60.6 5.3,59.9 5.8,58.9 5.4,58.6 4.1,57.4 "/>
</svg>
